<svg xmlns="http://www.w3.org/2000/svg" height="760" viewBox="0 0 1080 760" width="1080"><path d="m669.86 608.66h57.86v89.65h-57.86z" fill="#97d9ef"/><path d="m336.86 723.37h232.07v36.63h-232.07z" fill="#5faac3"/><path d="m698.14 635.33c-83.36 6.1-25.71 106.35-143.68 106.35" fill="none" stroke="#5faac3" stroke-miterlimit="10" stroke-width="9.64"/><path d="m704.56 649.46h-11.56a5.76 5.76 0 0 1 -5.73-5.11l-1.91-16.74a5.77 5.77 0 0 1 5.74-6.42h15.36a5.77 5.77 0 0 1 5.73 6.42l-1.9 16.74a5.78 5.78 0 0 1 -5.73 5.11zm-331.97 45.63h5a11.62 11.62 0 0 1 11.62 11.62v16.65h-28.21v-16.64a11.62 11.62 0 0 1 11.59-11.63z" fill="#5faac3"/><path d="m375.11 709.23c0-100.57-123.75-3.21-208 0" fill="none" stroke="#5faac3" stroke-miterlimit="10" stroke-width="9.64"/><path d="m424 695.09h5a11.62 11.62 0 0 1 11.62 11.62v16.65h-28.23v-16.64a11.62 11.62 0 0 1 11.61-11.63z" fill="#5faac3"/><path d="m426.54 709.23c0-255.45-349.08-247.1-349.08-426.4" fill="none" stroke="#5faac3" stroke-miterlimit="10" stroke-width="9.64"/><path d="m472.55 695.09h5a11.62 11.62 0 0 1 11.62 11.62v16.65h-28.24v-16.64a11.62 11.62 0 0 1 11.62-11.63z" fill="#5faac3"/><path d="m475.07 709.23c89.36-302.37-276.07-278.91-177.07-520.23" fill="none" stroke="#5faac3" stroke-miterlimit="10" stroke-width="9.64"/><path d="m524 695.09h5a11.62 11.62 0 0 1 11.62 11.62v16.65h-28.26v-16.64a11.62 11.62 0 0 1 11.64-11.63z" fill="#5faac3"/><path d="m526.5 709.23c0-294.65 478.61-270.88 478.61-426.4" fill="none" stroke="#5faac3" stroke-miterlimit="10" stroke-width="9.64"/><path d="m161.68 608.66c279-154.88 289.32-241.32 286.71-419.66" fill="none" stroke="#5faac3" stroke-miterlimit="10" stroke-width="9.64"/><path d="m115.07 501.33h104.14v258.67h-104.14z" fill="#666"/><path d="m115.07 510.97h104.14v249.03h-104.14z" fill="#333"/><path d="m161.68 501.33h10.93v9.64h-10.93z" fill="#afff84"/><path d="m0 296.33h1080v53.02h-1080z" fill="#dddfde"/><path d="m50.79 349.35h35.36v410.65h-35.36zm772.39 0h204.43v410.65h-204.43z" fill="#333"/><path d="m832.82 485.27h185.14v88.36h-185.14zm0 88.36h185.14v88.36h-185.14zm0 88.37h185.14v88.36h-185.14zm0-303.01h185.14v63.14h-185.14zm0 63.14h185.14v63.14h-185.14z" fill="#333" stroke="#000" stroke-miterlimit="10" stroke-width="3.86"/><path d="m970.39 485.43h-90l12.81 12.8a11.15 11.15 0 0 0 7.88 3.26h48.62a11.16 11.16 0 0 0 7.89-3.26zm0 88.57h-90l12.81 12.8a11.16 11.16 0 0 0 7.88 3.27h48.62a11.17 11.17 0 0 0 7.89-3.27zm0 88h-90l12.81 12.8a11.15 11.15 0 0 0 7.88 3.26h48.62a11.16 11.16 0 0 0 7.89-3.26zm0-239.71h-90l12.81 12.8a11.15 11.15 0 0 0 7.88 3.26h48.62a11.16 11.16 0 0 0 7.89-3.26zm0-62.98h-90l12.81 12.8a11.15 11.15 0 0 0 7.88 3.26h48.62a11.16 11.16 0 0 0 7.89-3.26z"/><rect fill="#333" height="148.45" rx="5" width="98.33" x="955.95" y="147.88"/><ellipse cx="1005.12" cy="237.4" fill="#fff" rx="37.63" ry="37.61" stroke="#000" stroke-miterlimit="10" stroke-width="12.86"/><ellipse cx="1005.12" cy="237.4" fill="#fff" rx="15.8" ry="15.8" stroke="#000" stroke-miterlimit="10" stroke-width="3.21"/><ellipse cx="1005.12" cy="175.96" rx="21.82" ry="21.82"/><circle cx="1005.12" cy="175.96" fill="#333" r="7.78"/><path d="m996.34 274.01h17.56v17.55h-17.56z"/><circle cx="1005.12" cy="282.79" fill="#fff" r="6.27"/><rect fill="#333" height="148.45" rx="5" width="98.33" x="28.14" y="147.88"/><ellipse cx="77.3" cy="237.4" fill="#fff" rx="37.63" ry="37.61" stroke="#000" stroke-miterlimit="10" stroke-width="12.86"/><ellipse cx="77.3" cy="237.4" fill="#fff" rx="15.8" ry="15.8" stroke="#000" stroke-miterlimit="10" stroke-width="3.21"/><ellipse cx="77.3" cy="175.96" rx="21.82" ry="21.82"/><circle cx="77.3" cy="175.96" fill="#333" r="7.78"/><path d="m68.52 274.01h17.56v17.55h-17.56z"/><circle cx="77.3" cy="282.79" fill="#fff" r="6.27"/><g fill="#5faac3"><path d="m646.07 215.68h205.71v12.85h-205.71z"/><path d="m799.71 220.82h25.71v75.51h-25.71zm-127.28 0h25.71v75.51h-25.71z"/><path d="m793.29 289.9h38.57v6.43h-38.57zm-127.29 0h38.57v6.43h-38.57z"/></g><path d="m874.7 203.22h-251.54v-152a7.48 7.48 0 0 1 7.48-7.48h236.58a7.48 7.48 0 0 1 7.48 7.48z"/><path d="m595.39 203.22h307.08v5.18a7.28 7.28 0 0 1 -7.28 7.28h-292.52a7.28 7.28 0 0 1 -7.28-7.28z" fill="#dddfde"/><path d="m595.47 209.45a7.28 7.28 0 0 0 7.2 6.23h292.52a7.28 7.28 0 0 0 7.2-6.23zm181.53-2.32h-56.1a3.07 3.07 0 0 1 -2.68-2.89h61.42a3.06 3.06 0 0 1 -2.64 2.89z" fill="#aaaeb1"/><path d="m632.06 52.66h233.74v141.66h-233.74z" fill="#163047"/><path d="m646.06 52.72h37.69v141.66h-37.69z" fill="#111e2a"/><path d="m632.06 52h233.74v8.37h-233.74z" fill="#dddfde"/><path d="m632.06 60.37h233.74v12.56h-233.74z" fill="#111e2a"/><circle cx="639.08" cy="66.65" fill="#f55f57" r="2.79"/><circle cx="648.85" cy="66.65" fill="#f6bc35" r="2.79"/><circle cx="658.62" cy="66.65" fill="#34cd45" r="2.79"/><path d="m697.7 81.3h27.92v8.37h-27.92z" fill="#aafff8"/><path d="m733.99 81.3h27.92v8.37h-27.92zm-36.29 15.35h55.83v8.37h-55.83z" fill="#afff84"/><path d="m784.24 127.35h55.83v8.37h-55.83z" fill="#aafff8"/><path d="m770.28 81.3h62.81v8.37h-62.81zm-27.91 76.75h69.79v8.37h-69.79z" fill="#fae259"/><path d="m761.91 96.65h55.83v8.37h-55.83z" fill="#aafff8"/><path d="m697.7 112h8.37v8.37h-8.37zm0 61.4h13.96v8.37h-13.96z" fill="#fae259"/><path d="m720.04 173.4h8.37v8.37h-8.37zm13.95-46.05h41.87v8.37h-41.87z" fill="#afff84"/><path d="m697.7 127.35h27.92v8.37h-27.92z" fill="#fae259"/><path d="m697.7 142.7h60.02v8.37h-60.02z" fill="#afff84"/><path d="m697.7 158.05h36.29v8.37h-36.29z" fill="#aafff8"/><path d="m805.18 142.7h19.54v8.37h-19.54z" fill="#fae259"/><path d="m766.1 142.7h30.71v8.37h-30.71z" fill="#aafff8"/><g fill="#5faac3"><path d="m348.56 189v107.33h48.22v-107.33zm32.15 57.51c0 3.67-3.6 6.64-8 6.64-4.44 0-8-3-8-6.64v-26.51c0-3.66 3.6-6.64 8-6.64 4.44 0 8 3 8 6.64z"/><path d="m312.56 282.83h120.21v13.5h-120.21z"/></g><rect height="202.91" rx="6.04" width="336.66" x="204.34" y="15.48"/><path d="m216.25 26.47h312.83v175.05h-312.83z" fill="#fff"/><path d="m216.24 26.47h22.75v175.05h-22.75zm290.09 0h22.75v175.05h-22.75z" fill="#606060"/><path d="m216.25 26.44h312.83v10.35h-312.83z" fill="#dddfde"/><path d="m216.25 36.78h312.83v15.52h-312.83z" fill="#393939"/><ellipse cx="225.65" cy="44.54" fill="#f55f57" rx="3.74" ry="3.45"/><ellipse cx="238.77" cy="44.54" fill="#f6bc35" rx="3.74" ry="3.45"/><ellipse cx="251.79" cy="44.54" fill="#34cd45" rx="3.74" ry="3.45"/><path d="m239 87.18h267v86.76h-267z" fill="#ccc"/><g stroke="#999" stroke-miterlimit="10" stroke-width="1.77"><path d="m381.37 93.09h112.59v70.79h-112.59z" fill="#b3b3b3"/><path d="m381.2 92.91 112.59 70.79m0-70.79-112.59 70.79" fill="#ccc"/></g><circle cx="259.93" cy="68.49" fill="#999" r="8.85"/><path d="m290.17 73.9v1.71h-9.17v-14.24h2v12.53zm8.11 2.1a6.84 6.84 0 0 1 -3.8-1 6.35 6.35 0 0 1 -2.37-2.71 9.39 9.39 0 0 1 0-7.54 6.35 6.35 0 0 1 2.37-2.75 6.8 6.8 0 0 1 3.78-1 6.7 6.7 0 0 1 3.82 1 6.4 6.4 0 0 1 2.34 2.76 9.1 9.1 0 0 1 0 7.44 6.32 6.32 0 0 1 -2.42 2.8 6.69 6.69 0 0 1 -3.72 1zm4.93-7.49a6.91 6.91 0 0 0 -.62-3 4.81 4.81 0 0 0 -1.75-2 4.67 4.67 0 0 0 -2.6-.73 4.58 4.58 0 0 0 -2.57.74 4.78 4.78 0 0 0 -1.74 2 6.83 6.83 0 0 0 -.63 3 7.05 7.05 0 0 0 .62 3 4.83 4.83 0 0 0 6.94 2 4.72 4.72 0 0 0 1.74-2 7 7 0 0 0 .61-3.03zm16.48-2.81h-1.86a3.73 3.73 0 0 0 -1.44-2.21 4.65 4.65 0 0 0 -2.83-.79 4.1 4.1 0 0 0 -2.4.73 4.8 4.8 0 0 0 -1.66 2 7.12 7.12 0 0 0 -.59 3 6.85 6.85 0 0 0 1.2 4.37 4.21 4.21 0 0 0 3.47 1.5 4.63 4.63 0 0 0 3.31-1.17 4.46 4.46 0 0 0 1.24-3.39v-.14h-4.45v-1.6h6.25v7.62h-1.25l-.46-1.85a5 5 0 0 1 -2 1.63 6.93 6.93 0 0 1 -6.3-.36 5.89 5.89 0 0 1 -2.24-2.63 9.71 9.71 0 0 1 .07-7.74 6.28 6.28 0 0 1 5.9-3.66 6.89 6.89 0 0 1 2.83.58 5.64 5.64 0 0 1 2.18 1.66 4.58 4.58 0 0 1 1.03 2.45zm9.44 10.3a6.84 6.84 0 0 1 -3.8-1 6.35 6.35 0 0 1 -2.33-2.74 9.39 9.39 0 0 1 0-7.54 6.35 6.35 0 0 1 2.33-2.72 7.54 7.54 0 0 1 7.61 0 6.53 6.53 0 0 1 2.34 2.76 9 9 0 0 1 .77 3.68 8.87 8.87 0 0 1 -.8 3.76 6.46 6.46 0 0 1 -2.37 2.8 6.74 6.74 0 0 1 -3.75 1zm4.94-7.49a6.91 6.91 0 0 0 -.63-3 4.74 4.74 0 0 0 -1.75-2 4.67 4.67 0 0 0 -2.6-.73 4.58 4.58 0 0 0 -2.57.74 4.85 4.85 0 0 0 -1.74 2 6.83 6.83 0 0 0 -.63 3 7.05 7.05 0 0 0 .62 3 4.76 4.76 0 0 0 8.68 0 7 7 0 0 0 .62-3.03z" fill="#999"/><path d="m466 64.95h28.33v7.08h-28.33zm-35.41.18h28.33v7.08h-28.33zm-35.41-.18h28.33v7.08h-28.33zm-35.4.18h28.33v7.08h-28.33zm-108.7 124.24h76.36v8.49h-76.36zm83.44 0h76.36v8.49h-76.36zm83.44 0h76.36v8.49h-76.36z" fill="#999"/><path d="m254.27 149.42 5-56.68h3.28l5 56.68h.06l4.14-56.68h3.25l-5.84 69.68h-3.16l-5.07-57.75h-.06l-5.13 57.75h-3.14l-5.77-69.68h3.24l4.14 56.68zm29.13 7.08a2.51 2.51 0 0 0 2-1.4 12.26 12.26 0 0 0 1.52-3.74 23.24 23.24 0 0 0 .68-4.85h2.72a45.94 45.94 0 0 1 -2.38 12.76c-1.2 3.07-2.77 4.61-4.73 4.61q-2.34 0-4-3.3a29.9 29.9 0 0 1 -2.52-9.07 90.7 90.7 0 0 1 -.85-13.16q0-12.9 2-20.52t5.73-7.62q3.34 0 5.14 7.76t1.81 21.84h-11.82a49.28 49.28 0 0 0 1.19 12.42q1.19 4.28 3.51 4.27zm-.22-38.63q-1.17 0-2.19 2a21 21 0 0 0 -1.65 5.53 41.85 41.85 0 0 0 -.64 7.58h9q-.38-15.11-4.52-15.11zm10.63 44.55v-69.68h2.71v69.68zm13.06-44.55c-1.42 0-2.52 1.74-3.29 5.2a66.68 66.68 0 0 0 -1.16 13.93 70.73 70.73 0 0 0 1.12 14.52q1.11 5 3.3 5 1.43 0 2.49-3.15a35.07 35.07 0 0 0 1.37-8.88h2.63a53.21 53.21 0 0 1 -2.07 14.22q-1.74 5.19-4.51 5.19-2.19 0-3.83-3.2a30.58 30.58 0 0 1 -2.52-9 89.26 89.26 0 0 1 -.88-13.3q0-12.81 2-20.48t5.71-7.66c1.73 0 3.14 1.66 4.22 5a49.66 49.66 0 0 1 1.84 13.54h-2.59q-.52-10.92-3.83-10.93zm15.78 45.91c-1.56 0-2.91-1.19-4.06-3.59a34.12 34.12 0 0 1 -2.59-9.66 94.24 94.24 0 0 1 -.88-13.54 92.83 92.83 0 0 1 .91-13.73 34.12 34.12 0 0 1 2.61-9.56q1.69-3.49 4-3.49c1.57 0 2.92 1.19 4.05 3.59a35 35 0 0 1 2.58 9.7 103.82 103.82 0 0 1 0 27.13 33.68 33.68 0 0 1 -2.58 9.66q-1.69 3.5-4.04 3.49zm4.67-26.49a67.94 67.94 0 0 0 -1.21-14.17q-1.2-5.53-3.52-5.54c-1.48 0-2.63 1.82-3.44 5.44a65.19 65.19 0 0 0 -1.22 14 65.44 65.44 0 0 0 1.22 13.88q1.22 5.53 3.47 5.54t3.49-5.54a64.43 64.43 0 0 0 1.21-13.61zm17.68-18.83a26.39 26.39 0 0 1 2.37-6.55 3 3 0 0 1 2.44-1.7q2.32 0 3.73 4.51a42.65 42.65 0 0 1 1.46 12.18v35.52h-2.72v-32.61a42.94 42.94 0 0 0 -.69-9c-.46-2-1.23-3-2.3-3-.7 0-1.34.63-1.92 1.9a20.41 20.41 0 0 0 -1.37 5 43.72 43.72 0 0 0 -.51 6.94v30.67h-2.72v-35.03a28.39 28.39 0 0 0 -.66-6.89c-.45-1.68-1.07-2.53-1.87-2.53q-1.92 0-3.09 4.52a48.93 48.93 0 0 0 -1.17 11.89v28.14h-2.72v-50.76h2.56v7.19h.06q1.86-8.64 4.88-8.64c.93 0 1.77.66 2.52 2a19.34 19.34 0 0 1 1.72 6.25zm20.77 38.04a2.54 2.54 0 0 0 2-1.4 12.26 12.26 0 0 0 1.51-3.74 23.24 23.24 0 0 0 .68-4.85h2.72a45.21 45.21 0 0 1 -2.38 12.76c-1.19 3.07-2.77 4.61-4.72 4.61q-2.35 0-4-3.3a30.48 30.48 0 0 1 -2.52-9.07 92.14 92.14 0 0 1 -.85-13.16q0-12.9 2-20.52t5.73-7.62q3.33 0 5.14 7.76t1.81 21.84h-11.8a48.81 48.81 0 0 0 1.19 12.42q1.18 4.28 3.49 4.27zm-.21-38.63c-.79 0-1.52.68-2.2 2a21 21 0 0 0 -1.65 5.53 42.81 42.81 0 0 0 -.63 7.58h9q-.38-15.11-4.52-15.11z" fill="#fff"/><rect fill="#333" height="23.36" rx="7.46" width="50.99" x="347.03"/><circle cx="360.48" cy="11.68" fill="#666" r="6.37" stroke="#000" stroke-miterlimit="10" stroke-width="3.54"/><path d="m734.15 259.7h-198.66a9.37 9.37 0 0 0 -6.66 2.78l-26.83 27.09a4 4 0 0 0 2.82 6.76h260a4 4 0 0 0 2.82-6.76l-26.83-27.09a9.37 9.37 0 0 0 -6.66-2.78z" fill="#333"/><path d="m533.45 263.2h12l-5.3 6.39h-12.72zm14.67 0h12l-4.43 6.39h-12.71zm14.67 0h12.01l-3.56 6.39h-12.72zm14.67 0h12.01l-2.69 6.39h-12.72zm14.68 0h12l-1.82 6.39h-12.71zm14.67 0h12.01l-.95 6.39h-12.72zm14.67 0h12.01l-.08 6.39h-12.72zm14.67 0h12.01l.79 6.39h-12.72zm14.68 0h12l1.66 6.39h-12.71zm14.67 0h12.01l2.53 6.39h-12.72zm14.67 0h12.01l3.4 6.39h-12.72zm14.68 0h12l4.27 6.39h-12.71zm14.67 0h12l5.15 6.39h-12.72zm14.67 0h12.01l6.01 6.39h-12.72zm-198.7 8.46h12.94l-6.19 7.47h-13.78zm15.82 0h12.95l-5.18 7.47h-13.78zm15.83 0h12.95l-4.17 7.47h-13.78zm15.82 0h12.95l-3.14 7.47h-13.78zm15.83 0h12.94l-2.12 7.47h-13.78zm15.82 0h12.95l-1.11 7.47h-13.78zm15.82 0h12.95l-.09 7.47h-13.78zm15.83 0h12.95l.92 7.47h-13.78zm15.83 0h12.94l1.94 7.47h-13.78zm15.82 0h12.95l2.96 7.47h-13.79zm15.82 0h12.95l3.98 7.47h-13.78zm15.83 0h12.95l4.99 7.47h-13.78zm15.82 0h12.95l6.01 7.47h-13.78zm15.83 0h12.94l7.03 7.47h-13.78zm-215.04 9.9h14.06l-7.34 8.84h-15.03zm17.18 0h14.05l-6.13 8.84h-15.04zm17.17 0h14.05l-4.93 8.84h-15.03zm17.17 0h14.05l-3.72 8.84h-15.03zm17.18 0h14.04l-2.51 8.84h-15.04zm17.17 0h14.05l-1.32 8.84h-15.03zm17.17 0h14.05l-.11 8.84h-15.03zm17.17 0h14.05l1.1 8.84h-15.04zm17.17 0h14.06l2.29 8.84h-15.03zm17.18 0h14.05l3.5 8.84h-15.03zm17.17 0h14.05l4.71 8.84h-15.04zm17.17 0h14.05l5.91 8.84h-15.03zm17.18 0h14.04l7.12 8.84h-15.03zm17.17 0h14.05l8.32 8.84h-15.04z" fill="#666"/><path d="m179 202.92h-4l.62-4.78a1.35 1.35 0 0 1 1.41-1.1 1.35 1.35 0 0 1 1.4 1.1z"/><path d="m181.54 274.68h-9.23l1.85-73.58h5.53z"/><rect fill="#aaaeb1" height="20.45" rx="1.5" width="3" x="175.43" y="249.03"/><path d="m177.46 285a.57.57 0 0 1 -1.05 0l-1.78-4.5-2.31-5.83h9.22l-2.3 5.83z"/><path d="m173.41 277.43h7.05l.42-1.07h-7.89z" fill="#afff84"/><g fill="#333"><path d="m156.62 283.89c5.47-4.51 10.36-7.3 15.18-8.38a1.09 1.09 0 0 1 .69.07c1.16.54 7.67.71 8.86.24a1.05 1.05 0 0 1 .7 0c4.6 1.23 9.45 3.93 14.94 8.09a7 7 0 0 1 2.76 5.53 6.92 6.92 0 0 1 -6.92 6.92h-31.83a6.92 6.92 0 0 1 -6.92-6.92v-.18a6.92 6.92 0 0 1 2.54-5.37z"/><path d="m242.44 288.94h218.73a2 2 0 0 1 2 2 5.38 5.38 0 0 1 -5.38 5.38h-212a5.38 5.38 0 0 1 -5.38-5.38 2 2 0 0 1 2-2z"/><g><path d="m908.49 276.43a67.64 67.64 0 0 1 -15.73-4.18 3.42 3.42 0 0 0 -1.9-.13 70.34 70.34 0 0 1 -14 1.3 3.43 3.43 0 0 0 -3.32 4c.78 4.29.09 7.09-2 9.92a6.3 6.3 0 0 0 -.28 7.17c.69 1.05 1.3 1.81 1.3 1.81h38.57a16.51 16.51 0 0 0 1.3-1.63 7.91 7.91 0 0 0 1-7.24c-3-8.11-.69-10.03-4.94-11.02z"/><rect height="6.11" rx="1.82" width="4.18" x="889.57" y="269.02"/></g></g></svg>